<svg xmlns="http://www.w3.org/2000/svg" width="28.198" height="28.198" viewBox="0 0 28.198 28.198">
  <path id="Icon_awesome-phone-alt" data-name="Icon awesome-phone-alt" d="M21.373,15.546,16.56,13.484a1.031,1.031,0,0,0-1.2.3l-2.131,2.6A15.927,15.927,0,0,1,5.612,8.771l2.6-2.131a1.029,1.029,0,0,0,.3-1.2L6.45.624a1.038,1.038,0,0,0-1.182-.6L.8,1.058A1.031,1.031,0,0,0,0,2.063,19.936,19.936,0,0,0,19.938,22a1.031,1.031,0,0,0,1.005-.8l1.031-4.469a1.044,1.044,0,0,0-.6-1.186Z" transform="translate(7.525 0) rotate(20)"/>
</svg>
